<?xml version="1.0" encoding="iso-8859-1"?>
<!-- Generator: Adobe Illustrator 19.0.0, SVG Export Plug-In . SVG Version: 6.00 Build 0)  -->
<svg xmlns="http://www.w3.org/2000/svg" xmlns:xlink="http://www.w3.org/1999/xlink" version="1.1" id="Capa_1" x="0px" y="0px" viewBox="0 0 512 512" style="enable-background:new 0 0 512 512;" xml:space="preserve" width="512px" height="512px">
<g>
	<g>
		<path d="M267,0h-70c-8.284,0-15,6.716-15,15v70c0,8.284,6.716,15,15,15s15-6.716,15-15V30h55c8.284,0,15-6.716,15-15    S275.284,0,267,0z" fill="#378ecc"/>
	</g>
</g>
<g>
	<g>
		<path d="M497,0h-70c-8.284,0-15,6.716-15,15s6.716,15,15,15h55v55c0,8.284,6.716,15,15,15s15-6.716,15-15V15    C512,6.716,505.284,0,497,0z" fill="#378ecc"/>
	</g>
</g>
<g>
	<g>
		<path d="M497,230c-8.284,0-15,6.716-15,15v55h-55c-8.284,0-15,6.716-15,15s6.716,15,15,15h70c8.284,0,15-6.716,15-15v-70    C512,236.716,505.284,230,497,230z" fill="#378ecc"/>
	</g>
</g>
<g>
	<g>
		<path d="M497,120c-8.284,0-15,6.716-15,15v60c0,8.284,6.716,15,15,15s15-6.716,15-15v-60C512,126.716,505.284,120,497,120z" fill="#378ecc"/>
	</g>
</g>
<g>
	<g>
		<path d="M377.001,0h-60c-8.284,0-15,6.716-15,15s6.716,15,15,15h60c8.284,0,15-6.716,15-15S385.285,0,377.001,0z" fill="#378ecc"/>
	</g>
</g>
<g>
	<g>
		<path d="M377.001,300H330V197c0-8.284-6.716-15-15-15h-96.381v-47c0-8.284-6.716-15-15-15s-15,6.716-15,15v47H15    c-8.284,0-15,6.716-15,15v300c0,8.284,6.716,15,15,15h300c8.284,0,15-6.716,15-15V330h47.001c8.284,0,15-6.716,15-15    S385.285,300,377.001,300z M300,482H30V212h270C300,216.305,300,478.072,300,482z" fill="#378ecc"/>
	</g>
</g>
<g>
	<g>
		<path d="M236.712,325.129l-60-75c-2.846-3.558-7.156-5.629-11.713-5.629s-8.867,2.071-11.713,5.629l-60,75    C91.132,327.823,90,331.207,90,334.5v100c0,8.284,6.716,15,15,15s15-6.716,15-15v-85h30v85c0,8.284,6.716,15,15,15s15-6.716,15-15    v-85h30v85c0,8.284,6.716,15,15,15s15-6.716,15-15v-100C240,331.206,238.856,327.809,236.712,325.129z M136.209,319.5L165,283.512    l28.79,35.988H136.209z" fill="#378ecc"/>
	</g>
</g>
<g>
</g>
<g>
</g>
<g>
</g>
<g>
</g>
<g>
</g>
<g>
</g>
<g>
</g>
<g>
</g>
<g>
</g>
<g>
</g>
<g>
</g>
<g>
</g>
<g>
</g>
<g>
</g>
<g>
</g>
</svg>
